<?xml version="1.0" encoding="utf-8"?>
<!-- Generator: Adobe Illustrator 24.3.0, SVG Export Plug-In . SVG Version: 6.00 Build 0)  -->
<svg version="1.1" id="Capa_1" xmlns="http://www.w3.org/2000/svg" xmlns:xlink="http://www.w3.org/1999/xlink" x="0px" y="0px"
	 viewBox="0 0 68 68" style="enable-background:new 0 0 68 68;" xml:space="preserve">
<style type="text/css">
	.st0{opacity:0;fill:#ED7280;}
	.st1{fill:url(#SVGID_1_);}
</style>
<path class="st0" d="M54.37,63.22H13.63C8.31,63.22,4,58.91,4,53.59V12.84c0-5.32,4.31-9.63,9.63-9.63h40.74
	c5.32,0,9.63,4.31,9.63,9.63v40.74C64,58.91,59.69,63.22,54.37,63.22z"/>
<linearGradient id="SVGID_1_" gradientUnits="userSpaceOnUse" x1="15.1047" y1="33.9028" x2="53.1067" y2="33.9028">
	<stop  offset="0" style="stop-color:#B8DCCC"/>
	<stop  offset="0.2247" style="stop-color:#B8DCCC"/>
	<stop  offset="0.4777" style="stop-color:#A9D8D6"/>
	<stop  offset="0.6006" style="stop-color:#93D2E1"/>
	<stop  offset="0.7123" style="stop-color:#81CDEC"/>
</linearGradient>
<path class="st1" d="M39.63,60.68l-9.09-19.25c-0.28-0.58-1.04-0.73-1.72-0.73h0c-0.26,0-1.11,0.38-1.28,1.58
	c-0.45,3.2,0.03,9.52,0.03,9.52c0.05,0.54-0.15,1.07-0.57,1.44l-9.55,7.88c-0.03,0.03-0.07,0.05-0.11,0.06c0,0-0.75,0.56-1.26,0.4
	c-0.57-0.18-0.99-1.09-0.99-1.56l0.03-0.86l0.18-1.32L15.18,7.8c0-0.9,0.78-1.63,1.74-1.63h18.23c3.84,0,7.13,0.77,9.84,2.29
	c2.71,1.53,4.75,3.63,6.09,6.28c1.35,2.66,2.02,5.63,2.02,8.89c0,3.69-0.92,6.98-2.75,9.88c-1.54,2.44-3.7,4.29-6.48,5.53
	c-0.87,0.39-1.24,1.37-0.82,2.18l9.27,18.07c0.56,1.09-0.28,2.35-1.56,2.35h-9.55C40.53,61.64,39.91,61.26,39.63,60.68z
	 M26.99,29.56c0,0.9,0.78,1.63,1.74,1.63h5.64c2.18,0,3.81-0.6,4.9-1.82c1.09-1.21,1.64-2.92,1.64-5.14c0-2.1-0.55-3.76-1.64-4.98
	c-1.09-1.21-2.72-1.81-4.9-1.81h-5.64c-0.96,0-1.74,0.73-1.74,1.63V29.56z"/>
</svg>
