<?xml version="1.0" encoding="utf-8"?>
<!-- Generator: Adobe Illustrator 24.3.0, SVG Export Plug-In . SVG Version: 6.00 Build 0)  -->
<svg version="1.1" id="Capa_1" xmlns="http://www.w3.org/2000/svg" xmlns:xlink="http://www.w3.org/1999/xlink" x="0px" y="0px"
	 viewBox="0 0 197 68" style="enable-background:new 0 0 197 68;" xml:space="preserve">
<style type="text/css">
	.st0{fill:#8BDEED;}
	.st1{fill:#008389;}
	.st2{fill:#BAEED1;}
	.st3{fill:#EE7281;}
	.st4{fill:#FFFFFF;}
	.st5{font-family:'Poppins-Bold';}
	.st6{font-size:40.4539px;}
	.st7{font-size:12.1572px;}
	.st8{fill:#B5ECD4;}
</style>
<path class="st0" d="M171.8,55.9c0-1.6,1.3-2.8,2.8-2.9c1.6,0,2.9,1.3,2.9,2.9c0,1.5-1.3,2.8-2.8,2.8
	C173.1,58.7,171.8,57.5,171.8,55.9z"/>
<path class="st1" d="M193.6,30.6c0,1.6-1.2,2.8-2.8,2.8c-1.6,0-2.8-1.2-2.8-2.8c0-1.5,1.4-2.8,2.9-2.8
	C192.4,27.7,193.6,29,193.6,30.6z"/>
<path class="st2" d="M8.7,12c-1.1,0-1.7-0.6-1.7-1.8c0-1.1,0.8-1.8,1.9-1.9c0.8,0,1.8,1,1.8,1.9C10.6,11.3,9.7,12,8.7,12z"/>
<g>
	<path class="st3" d="M120.9,55c0.5,0.4,0.9,1,0.5,1.5c-1.5,1.3-0.2,2,0.4,3c0.3,0.5,1.8,0.5,0.9,1.7c-0.9,1.2-1.7,0.4-2.5-0.1
		c-0.7-1-1.2-2-2.8-1.6c-1,0.3-1.4-0.6-1-1.6c0.4-0.9,1.4-0.9,2.1-1.3C119.1,55.8,120,55.4,120.9,55z"/>
	<path class="st3" d="M113.9,59.6c0.6,0,0.8,0.2,1,0.5c0.3,0.6,0,1-0.5,1.2c-1,0.5-1.9,1-2.9,1.5c-0.4,0.2-0.7,0.2-0.8-0.3
		c-0.1-0.4-0.2-1.1-0.1-1.2C111.7,60.6,112.9,60.1,113.9,59.6z"/>
	<path class="st3" d="M153,21.3c5.2-1.3,10-3.7,15.1-5.5c3.5-1.2,6.9-2.6,10.4-3.8c3.3-0.9,6.4-2.2,9.7-3.3c0.8-0.3,1.7-1.1,2.4-0.3
		c0.6,0.7,0.5,1.7,0.2,2.7c-1.2,4-2.4,8-3.5,12.1c-1.7,5.9-3,11.9-3.8,18c-0.1,0.7,0.2,1.7-0.7,1.9c-0.9,0.2-1.1-0.7-1.5-1.3
		c-1.5-2-3.6-3.3-5.6-4.7c-2-1.5-4-3.1-6.1-4.6c-0.5-0.4-0.9-0.7-1.5,0c-1.7,2-3.4,3.9-4.9,6c1.6-0.2,2.7-1.2,3.9-2
		c0.9-0.6,1.8-1.3,2.7-1.9c0.3-0.2,0.7-0.3,1,0c0.4,0.5,0,0.8-0.4,1c-2.6,1.8-5.2,3.7-7.9,5.4c-1,0.7-2.4-0.2-2.5-1.5
		c-0.3-3.3-0.5-6.6-0.6-9.9c0-1.1-0.4-1.8-1.4-2.2c-2.2-0.8-4.4-1.5-6.6-2.3c-0.5-0.8-1.9-1.1-1.8-2c0.2-1.1,1.7-0.9,2.5-1.3
		C152.3,21.6,152.6,21.4,153,21.3z"/>
	<path class="st3" d="M130.6,65.3c-1.8-0.1-3.6-0.6-5.3-1.2c-0.5-0.2-1.6-0.2-1.2-1.1c0.3-0.7,0.9-1.3,1.9-1
		c1.7,0.5,3.5,1.2,5.3,1.1c0.9-0.1,1.7,0.2,1.5,1.1C132.6,65.5,131.4,65,130.6,65.3z"/>
	<path class="st3" d="M142.9,61.3c0,0.6-0.3,0.7-0.7,0.9c-2,0.9-3.9,1.8-6.1,2.2c-0.5,0.1-1.1,0.3-1.2-0.4c-0.2-0.6,0-1.2,0.7-1.4
		c2.1-0.5,4.1-1.4,6.1-2.4C142.7,59.7,142.6,60.8,142.9,61.3z"/>
	<path class="st3" d="M146.3,59.6c0.4-0.9-0.2-1.7-0.1-2.6c1.4-0.7,2.6-1.7,3.5-3.1c0.7-0.8,1.2,0.3,1.8,0.2
		c0.4,0.6,0.4,1.2-0.2,1.7c-1.4,0.8-2.3,2.1-3.4,3.2C147.2,59.2,146.8,59.4,146.3,59.6z"/>
	<path class="st3" d="M144.6,58.6c0.2,0.9,1,0.9,1.7,1c-0.6,0.6-1.1,1.6-2.1,0.8C143.7,60,143.3,59,144.6,58.6z"/>
	<path class="st3" d="M152,52.9c-0.9-1.4,0.4-2.4,1-3.2c1.1-1.4,2.2-2.7,3-4.2c0.3-0.5,0.7-0.8,1.2-0.6c0.6,0.2,0.5,0.8,0.3,1.3
		c-1.1,2.6-2.1,5.2-4.7,6.8C152.5,53.2,152.2,53.1,152,52.9z"/>
	<path class="st4" d="M189.6,11.3c-3.6,9.7-6,19.1-7.5,29.2c-3.9-3.9-8.8-6-12.8-9.6C175.9,24.5,182.1,17.6,189.6,11.3z"/>
	<path class="st4" d="M161.2,38.4c-0.3-3.7-0.5-6.8-0.8-9.8c-0.1-0.6,0.2-0.8,0.6-1c8.1-4.8,15.7-10.4,24.2-14.7
		c0.2-0.1,0.5-0.2,1.4-0.5C177.5,20.8,169.1,28.9,161.2,38.4z"/>
	<path class="st4" d="M185,11.6c-3,1.7-6,3.2-8.8,5c-4.8,3-9.5,6.1-14.3,9.3c-1.2,0.8-2.3,1-3.8,0.3c-1.9-1-3.9-1.5-5.9-2.3
		c-0.2-0.1-0.5-0.3-0.6-0.5c-0.2-0.3,0.2-0.5,0.5-0.6c11-3.3,21.3-8.3,32.3-11.4C184.5,11.3,184.7,11.5,185,11.6z"/>
</g>
<text transform="matrix(1.0069 0 0 1 12.1475 41.8225)" class="st1 st5 st6">REKADO</text>
<text transform="matrix(1.0069 0 0 1 32.4146 58.8039)" class="st1 st5 st7">MENSAJERIA LOCAL</text>
<path class="st0" d="M14.7,53c0-1.6,1.3-2.8,2.8-2.9c1.6,0,2.9,1.3,2.9,2.9c0,1.5-1.3,2.8-2.8,2.8C16,55.9,14.7,54.6,14.7,53z"/>
<path class="st8" d="M154.2,5.5c0-1.6,1.3-2.8,2.8-2.9c1.6,0,2.9,1.3,2.9,2.9c0,1.5-1.3,2.8-2.8,2.8C155.5,8.4,154.2,7.1,154.2,5.5z
	"/>
</svg>
