<?xml version="1.0" encoding="utf-8"?>
<!-- Generator: Adobe Illustrator 24.3.0, SVG Export Plug-In . SVG Version: 6.00 Build 0)  -->
<svg version="1.1" id="Capa_1" xmlns="http://www.w3.org/2000/svg" xmlns:xlink="http://www.w3.org/1999/xlink" x="0px" y="0px"
	 viewBox="0 0 197 68" style="enable-background:new 0 0 197 68;" xml:space="preserve">
<style type="text/css">
	.st0{fill:#8BDEED;}
	.st1{fill:#008389;}
	.st2{fill:#BAEED1;}
	.st3{fill:#EE7281;}
	.st4{fill:#80DBF4;}
	.st5{fill:#88DEEF;}
	.st6{fill:#8ADEEE;}
	.st7{font-family:'Poppins-Bold';}
	.st8{font-size:36.6033px;}
	.st9{font-size:11px;}
	.st10{fill:#B5ECD4;}
</style>
<path class="st0" d="M166.9,53.1c0-1.4,1.1-2.6,2.5-2.6c1.4,0,2.6,1.2,2.6,2.6c0,1.3-1.2,2.5-2.5,2.6
	C168.1,55.7,166.9,54.6,166.9,53.1z"/>
<path class="st1" d="M186.6,30.3c0,1.5-1,2.5-2.5,2.5c-1.5,0-2.5-1.1-2.5-2.5c0-1.3,1.2-2.6,2.6-2.6
	C185.5,27.7,186.6,28.8,186.6,30.3z"/>
<path class="st2" d="M20.3,13.5c-1,0-1.5-0.6-1.5-1.6c0-1,0.7-1.7,1.7-1.7c0.7,0,1.6,0.9,1.6,1.7C22.1,12.8,21.3,13.5,20.3,13.5z"/>
<g>
	<path class="st3" d="M121.2,52.4c0.4,0.4,0.9,0.9,0.4,1.3c-1.3,1.2-0.2,1.8,0.3,2.7c0.3,0.5,1.6,0.5,0.8,1.5
		c-0.8,1.1-1.5,0.4-2.3-0.1c-0.6-0.9-1-1.8-2.5-1.4c-0.9,0.2-1.3-0.5-0.9-1.5c0.4-0.8,1.2-0.8,1.9-1.2
		C119.6,53,120.4,52.7,121.2,52.4z"/>
	<path class="st3" d="M114.9,56.5c0.5,0,0.7,0.2,0.9,0.5c0.3,0.5,0,0.9-0.4,1.1c-0.9,0.5-1.7,0.9-2.6,1.3c-0.3,0.2-0.7,0.2-0.7-0.3
		c-0.1-0.4-0.2-1,0-1.1C113,57.5,114,57,114.9,56.5z"/>
	<path class="st3" d="M150,21.9c4.7-1.1,9-3.4,13.6-5c3.1-1.1,6.2-2.3,9.3-3.5c3-0.8,5.8-2,8.7-3c0.7-0.2,1.5-1,2.1-0.3
		c0.5,0.6,0.5,1.6,0.2,2.4c-1.1,3.6-2.1,7.3-3.2,10.9c-1.5,5.4-2.7,10.8-3.4,16.3c-0.1,0.6,0.2,1.5-0.6,1.7c-0.8,0.2-1-0.7-1.4-1.2
		c-1.4-1.8-3.2-3-5.1-4.2c-1.8-1.4-3.6-2.8-5.4-4.2c-0.4-0.3-0.8-0.6-1.3,0c-1.5,1.8-3,3.5-4.4,5.4c1.4-0.2,2.4-1.1,3.5-1.8
		c0.8-0.5,1.6-1.2,2.4-1.7c0.3-0.2,0.7-0.3,0.9,0c0.4,0.4,0,0.7-0.3,0.9c-2.4,1.6-4.7,3.3-7.1,4.9c-0.9,0.6-2.1-0.2-2.2-1.3
		c-0.2-3-0.5-6-0.6-9c0-1-0.4-1.7-1.2-2c-2-0.7-3.9-1.4-5.9-2.1c-0.5-0.7-1.7-1-1.6-1.8c0.2-1,1.5-0.8,2.3-1.2
		C149.4,22.1,149.7,22,150,21.9z"/>
	<path class="st3" d="M129.9,61.7c-1.6-0.1-3.2-0.5-4.8-1.1c-0.4-0.2-1.4-0.1-1.1-1c0.2-0.6,0.8-1.2,1.7-0.9c1.6,0.5,3.1,1.1,4.8,1
		c0.8-0.1,1.5,0.1,1.3,1C131.7,61.9,130.6,61.4,129.9,61.7z"/>
	<path class="st3" d="M141,58c0,0.5-0.3,0.7-0.6,0.8c-1.8,0.8-3.5,1.6-5.5,2c-0.4,0.1-1,0.3-1.1-0.3c-0.1-0.5,0-1.1,0.6-1.3
		c1.9-0.5,3.7-1.3,5.4-2.2C140.8,56.6,140.7,57.6,141,58z"/>
	<path class="st3" d="M144,56.5c0.4-0.8-0.2-1.6-0.1-2.4c1.3-0.7,2.4-1.6,3.1-2.8c0.6-0.7,1,0.3,1.6,0.2c0.4,0.6,0.3,1.1-0.2,1.5
		c-1.2,0.7-2.1,1.9-3.1,2.9C144.9,56.2,144.4,56.3,144,56.5z"/>
	<path class="st3" d="M142.5,55.6c0.2,0.9,0.9,0.9,1.6,0.9c-0.5,0.6-1,1.5-1.9,0.8C141.6,56.8,141.4,56,142.5,55.6z"/>
	<path class="st3" d="M149.1,50.5c-0.8-1.3,0.3-2.2,0.9-2.9c1-1.2,2-2.4,2.7-3.8c0.2-0.5,0.7-0.7,1.1-0.5c0.5,0.2,0.5,0.7,0.3,1.2
		c-1,2.3-1.9,4.7-4.2,6.2C149.6,50.7,149.3,50.7,149.1,50.5z"/>
	<path class="st4" d="M182.9,12.8c-3.2,8.8-5.4,17.3-6.7,26.4c-3.5-3.5-7.9-5.5-11.5-8.7C170.7,24.7,176.2,18.6,182.9,12.8z"/>
	<path class="st5" d="M157.4,37.4c-0.3-3.4-0.4-6.1-0.7-8.9c0-0.5,0.1-0.7,0.5-0.9c7.3-4.4,14.1-9.4,21.7-13.3
		c0.2-0.1,0.5-0.2,1.3-0.4C172.1,21.4,164.5,28.7,157.4,37.4z"/>
	<path class="st6" d="M178.8,13.1c-2.7,1.5-5.4,2.9-7.9,4.5c-4.3,2.7-8.6,5.6-12.8,8.4c-1.1,0.7-2.1,0.9-3.4,0.3
		c-1.7-0.9-3.5-1.4-5.3-2.1c-0.2-0.1-0.5-0.3-0.6-0.4c-0.1-0.3,0.2-0.5,0.4-0.5c9.9-3,19.2-7.5,29-10.3
		C178.4,12.9,178.5,13,178.8,13.1z"/>
</g>
<text transform="matrix(1 0 0 1 23.4664 40.4393)" class="st1 st7 st8">REKADO</text>
<text transform="matrix(1 0 0 1 41.6796 55.8042)" class="st1 st7 st9">MENSAJERIA LOCAL</text>
<path class="st0" d="M25.7,50.6c0-1.4,1.1-2.6,2.5-2.6c1.4,0,2.6,1.2,2.6,2.6c0,1.3-1.2,2.5-2.5,2.6C26.9,53.2,25.7,52,25.7,50.6z"
	/>
<path class="st10" d="M151.1,7.6c0-1.4,1.1-2.6,2.5-2.6c1.4,0,2.6,1.2,2.6,2.6c0,1.3-1.2,2.5-2.5,2.6C152.3,10.2,151.1,9,151.1,7.6z
	"/>
</svg>
